<svg height="22" viewBox="0 0 132.44 22" fill="none" xmlns="http://www.w3.org/2000/svg" width="132.44"><path d="M41.47 22c.238 0 .44-.197.44-.44V11.33s.55.99 1.54 2.64l4.29 7.37c.196.411.632.66.99.66h2.97V5.5h-2.97a.447.447 0 0 0-.44.44v10.34l-1.98-3.52-3.96-6.71c-.193-.342-.607-.55-.99-.55H38.5V22zm38.39-11.88h1.43a.66.66 0 0 0 .66-.66V6.6h3.08v3.52H88v2.64h-2.97v4.73c0 1.155.556 1.65 1.54 1.65H88V22h-1.87c-2.536 0-4.18-1.642-4.18-4.4v-4.84h-2.09zm-14.85 0v6.82c0 1.54-.578 2.839-1.43 3.74S61.552 22 59.95 22s-2.888-.419-3.74-1.32c-.837-.901-1.43-2.2-1.43-3.74v-6.82h1.76c.375 0 .745.068.99.33.245.247.33.392.33.77v5.72c0 .886.05 1.434.44 1.87.39.421.871.55 1.65.55.794 0 1.15-.129 1.54-.55.39-.436.44-.984.44-1.87v-5.72c0-.378.085-.618.33-.88.216-.23.443-.224.77-.22h.22zm9.35 5.72 3.74-5.72h-2.86c-.36 0-.681.129-.88.44L72.6 13.2l-1.65-2.53c-.199-.311-.63-.55-.99-.55h-2.75l3.74 5.61L66.88 22h2.86c.357 0 .68-.353.88-.66l1.98-2.97 2.09 3.08c.2.307.522.55.88.55h2.86z" fill="currentColor"/><path d="M18.48 22h12.21c.39 0 .763-.137 1.1-.33s.685-.435.88-.77.33-.714.33-1.1-.135-.765-.33-1.1L24.42 4.51c-.195-.334-.433-.577-.77-.77s-.82-.33-1.21-.33-.763.137-1.1.33-.575.436-.77.77l-2.09 3.63L14.3 1.1c-.195-.334-.433-.687-.77-.88S12.82 0 12.43 0s-.763.027-1.1.22-.685.545-.88.88L.22 18.7c-.195.334-.22.714-.22 1.1s.025.766.22 1.1.543.577.88.77.71.33 1.1.33h7.7c3.051 0 5.272-1.369 6.82-3.96l3.74-6.49 1.98-3.41 6.05 10.34h-8.03zm-8.69-3.52H4.4l8.03-13.86 4.07 6.93-2.696 4.7c-1.028 1.681-2.2 2.23-4.014 2.23M98.12 22c-1.128 0-2.003-.23-2.86-.66-.857-.445-1.59-1.081-2.09-1.87-.485-.803-.727-1.689-.77-2.75h3.08c.071.774.299 1.315.77 1.76.485.445 1.195.66 1.98.66.728 0 1.222-.139 1.65-.44.443-.301.66-.651.66-1.21 0-.387-.073-.761-.33-.99-.243-.244-.509-.421-.88-.55s-.965-.268-1.65-.44c-1.014-.244-1.873-.498-2.53-.77-.643-.287-1.179-.703-1.65-1.32s-.66-1.455-.66-2.53c0-.817.217-1.555.66-2.2s1.085-1.182 1.87-1.54c.785-.373 1.641-.55 2.64-.55 1.071 0 2.046.163 2.86.55a4.3 4.3 0 0 1 1.87 1.65c.471.717.741 1.584.77 2.53h-3.08c-.057-.602-.232-1.086-.66-1.43-.428-.358-1.046-.55-1.76-.55-.628 0-1.169.168-1.54.44s-.55.655-.55 1.1c0 .416.183.746.44.99s.59.407.99.55c.4.129.95.282 1.65.44 1.028.244 1.777.512 2.42.77s1.193.703 1.65 1.32c.471.602.77 1.359.77 2.42 0 .932-.299 1.732-.77 2.42s-1.123 1.277-1.98 1.65c-.842.373-1.856.55-2.97.55m18.04 0h-10.45V6.6h10.23v2.97h-7.04v3.19h5.61v2.75h-5.61v3.52h7.26zm8.58 0c-1.456 0-2.79-.33-3.96-.99-1.156-.674-1.969-1.589-2.64-2.75-.657-1.176-.99-2.497-.99-3.96s.333-2.799.99-3.96a7.26 7.26 0 0 1 2.75-2.75c1.17-.674 2.394-.99 3.85-.99 1.442 0 2.804.316 3.96.99a7.07 7.07 0 0 1 2.75 2.75c.671 1.161.99 2.497.99 3.96s-.319 2.784-.99 3.96a7.26 7.26 0 0 1-2.75 2.75c-1.156.66-2.518.99-3.96.99m0-2.86c.843 0 1.639-.134 2.31-.55.685-.43 1.169-1.014 1.54-1.76.385-.746.55-1.598.55-2.53s-.165-1.784-.55-2.53c-.371-.746-.855-1.33-1.54-1.76-.671-.43-1.467-.66-2.31-.66s-1.529.23-2.2.66-1.265 1.014-1.65 1.76c-.371.746-.55 1.598-.55 2.53s.179 1.784.55 2.53c.385.746.979 1.33 1.65 1.76.671.416 1.357.55 2.2.55" fill="#00DC82"/></svg>
